<svg xmlns="http://www.w3.org/2000/svg" viewBox="0 0 468.051 468.051" class="themeforest" > <path d="M435.375 244.789c-.098-.1-.195-.162-.26-.262-8.923-9.54-22.764-13.775-44.878-13.775-7.944 0-18.69.553-29.244 1.693l.164-177.712c0-13.905-11.3-25.206-25.206-25.206H25.173C11.268 29.527 0 40.829 0 54.733v310.745c0 13.939 11.267 25.204 25.173 25.204h83.436c1.659 2.541 3.384 5.082 5.34 7.459 22.013 26.77 60.507 40.383 114.435 40.383 41.099 0 83.566-7.619 111.704-12.669l10.29-1.823c34.163-5.926 52.79-13.45 64.416-25.826 5.013-1.888 11.463-5.24 13.999-10.39 1.308-2.765 1.5-5.794.457-8.596-.848-2.245-2.345-4.037-4.2-5.504a44.142 44.142 0 003.419-5.601c4.072-2.019 8.272-4.92 10.16-8.826 1.369-2.738 1.497-5.795.456-8.598-1.106-2.898-3.289-5.047-5.961-6.709-.097-1.759-.229-3.485-.456-5.179a62.83 62.83 0 001.727-2.834c6.222-2.181 15.306-6.415 18.63-13.286 1.627-3.321 1.82-7.035.521-10.422-2.216-6.024-8.272-9.477-14.655-11.527.163-.781.456-1.531 1.106-2.181 1.401-2.606 3.385-5.311 5.049-8.24 7.522-2.834 17.52-7.882 21.331-15.729 1.985-4.072 2.212-8.632.649-12.799-4.426-11.82-20.74-15.693-31.651-16.996zm-6.611 45.201l-38.592 5.732 37.028 4.103c2.9 8.891 5.31 25.533-9.932 39.793 0 0 .163.393.424 1.043l-30.45 4.041 32.241 3.125c.781 5.08.585 11.755-3.193 18.007l-25.368 7.394 20.55-.553c-.064 4.008-3.938 21.036-62.983 31.297-67.28 11.689-255.968 52.661-226.724-95.093C151.009 161.126 309.019 96.775 341.193 96.775v142.249c-17.455 2.768-32.92 5.797-46.535 8.827-15.077-2.054-51-6.091-69.757-.391l42.759 7.132c-38.493 10.553-55.2 19.932-55.2 19.932 44.746-12.96 95.03-20.713 118.378-23.904 39.697-4.397 83.499-1.562 92.26 7.785 14.98 15.987 10.193 26.47 5.666 31.585z" ></path></svg>